<svg
        width="210mm"
        height="297mm"
        viewBox="0 0 210 297"
        version="1.1"
        id="svg5"
        xml:space="preserve"
        xmlns="http://www.w3.org/2000/svg"><defs
     id="defs2" />
    <g
            id="layer1">
        <path
                style="fill:#40B8BF;stroke-width:1"
                d="m 558.8587,499.05861 c 2.94531,-3.29569 8.9304,-11.43151 13.3002,-18.0796 11.35305,-17.27215 10.91597,-16.83742 24.42932,-24.29777 14.55158,-8.03353 41.93093,-24.6067 61.67311,-37.33176 23.55357,-15.18172 51.63761,-33.60945 65.72383,-43.12559 12.601,-8.51278 13.24678,-9.10977 11.58379,-10.70869 -2.0059,-1.92862 -70.34817,-46.56247 -93.92784,-61.34361 -74.27095,-46.55744 -125.96469,-67.52875 -189.87339,-77.02855 -13.89348,-2.06522 -52.72459,-3.04762 -66.06809,-1.67147 -26.65315,2.74879 -54.97991,16.97925 -76.50212,38.43222 -20.47767,20.41179 -33.15232,44.45847 -39.23197,74.43198 -2.40577,11.86074 -2.92918,37.98921 -1.03134,51.48387 2.74816,19.54094 10.6264,40.37451 21.85009,57.78139 2.45173,3.80241 4.19553,7.17562 3.87512,7.49602 -1.35109,1.3511 -20.42763,-7.27123 -30.38988,-13.73579 -5.85363,-3.79846 -6.35038,-4.43987 -9.22624,-11.91336 -9.04611,-23.5081 -11.74005,-40.15048 -10.98016,-67.83227 0.74789,-27.24466 5.14983,-45.86367 16.3129,-68.99908 22.41572,-46.45648 61.31182,-77.57431 111.31246,-89.05268 11.67677,-2.68057 31.72398,-3.46279 56.40801,-2.20096 73.79814,3.77249 143.87059,28.35306 224.88383,78.88655 18.95813,11.82548 126.96136,83.83593 128.47522,85.66001 1.07988,1.30118 -4.40577,5.3415 -38.30299,28.21108 -56.0947,37.84565 -82.22035,54.9647 -103.02238,67.50624 -22.87175,13.78941 -66.39136,35.70853 -84.93945,42.7807 -0.92792,0.3538 0.72266,-2.05319 3.66797,-5.34888 z"
                id="path1509"
                transform="scale(0.26458333)"/>
        <path
                style="fill:#E4551C;stroke-width:1"
                d="M 369.67392,532.81275 C 298.207,526.114 238.21747,504.97847 163.45715,460.15835 146.65717,450.08648 83.283269,408.37547 38.894423,378.1745 l -16.002658,-10.88779 2.907941,-2.35369 c 5.779645,-4.67806 108.114524,-72.83537 126.300464,-84.11893 21.49315,-13.33553 40.30524,-23.95628 58.92622,-33.26801 16.66558,-8.3339 38.85054,-18.15063 39.51568,-17.48549 0.28095,0.28095 -1.53555,2.91237 -4.03666,5.8476 -2.5011,2.93523 -7.98406,10.54949 -12.18433,16.92057 -4.20027,6.37108 -8.72828,12.94362 -10.06224,14.60564 -1.34816,1.67972 -9.29915,6.89675 -17.90177,11.74623 -22.5052,12.68666 -38.14337,22.42255 -90.73403,56.48849 -25.879493,16.76361 -46.923652,30.91915 -46.764796,31.45675 0.594642,2.01237 105.908246,69.62134 129.203666,82.94585 73.11396,41.81971 141.71074,61.43476 207.37066,59.29702 19.22953,-0.62607 27.07312,-1.99395 41.80237,-7.29016 45.33514,-16.30117 79.36426,-57.44082 89.29859,-107.95793 2.70404,-13.75033 2.38446,-43.87357 -0.60606,-57.12644 -4.15027,-18.39243 -11.47244,-36.28847 -20.75177,-50.71921 -2.59902,-4.04186 -4.48742,-7.5869 -4.19646,-7.87786 0.9331,-0.93311 19.77085,7.34281 28.1646,12.37346 7.49814,4.49387 8.33374,5.33208 10.87755,10.91152 1.51551,3.32405 3.73449,9.21667 4.93105,13.09472 16.34151,52.96273 6.98861,109.88273 -25.27498,153.81871 -7.77081,10.58215 -26.20604,28.80013 -36.64483,36.213 -16.95279,12.03861 -38.81995,21.59698 -59.73997,26.11297 -7.77888,1.67921 -14.17075,2.16913 -31.88923,2.44417 -12.18816,0.18919 -26.46644,-0.0596 -31.72951,-0.55294 z"
                id="path1511"
                transform="scale(0.26458333)"/>
        <path
                style="fill:#40BF91;stroke-width:1"
                d="m 393.34514,434.18164 c -12.82572,-2.05881 -24.15751,-8.04198 -34.8258,-18.38799 -8.6625,-8.40081 -14.01935,-16.57616 -17.13311,-26.14769 -1.98043,-6.08774 -2.40406,-9.49882 -2.41783,-19.4684 -0.0263,-19.02673 1.6224,-24.85659 5.65186,-19.98542 3.02507,3.65699 11.11109,6.36719 19.00995,6.37161 10.51002,0.006 14.2239,-1.27277 19.75126,-6.80014 6.40767,-6.40767 8.40327,-11.13687 8.43062,-19.97899 0.0263,-8.50636 -1.13998,-12.38633 -5.63702,-18.75295 l -3.35688,-4.75245 4.15798,-1.11963 c 5.56897,-1.49957 27.2777,-1.44203 33.56569,0.089 21.27458,5.17992 42.33611,26.33317 47.33683,47.54298 1.96002,8.31315 1.93966,24.89997 -0.04,32.5355 -2.96831,11.44912 -8.24225,20.38362 -17.55595,29.7413 -9.58438,9.62965 -18.56459,14.80982 -30.24457,17.44638 -8.58823,1.93865 -20.40372,2.6765 -26.69308,1.66692 z"
                id="path1582"
                transform="scale(0.26458333)"/>
    </g>
</svg>
